<svg xmlns="http://www.w3.org/2000/svg" viewBox="0 0 369.61 119.34"><defs><style>.cls-1{fill:#384a51;}</style></defs><g id="Capa_2" data-name="Capa 2"><g id="Capa_2-2" data-name="Capa 2"><rect class="cls-1" x="46.61" y="20.64" width="33.15" height="2.06"/><path class="cls-1" d="M59.94,20.48a24.77,24.77,0,0,1,1.22-7.83A19.91,19.91,0,0,1,64.7,6.12a17,17,0,0,1,5.72-4.47A17.55,17.55,0,0,1,78.2,0a18.55,18.55,0,0,1,5.69.87,15.15,15.15,0,0,1,8.45,6.61,14.85,14.85,0,0,1,2,5.42H92a14.89,14.89,0,0,0-4.87-8,13.63,13.63,0,0,0-8.89-2.87,15,15,0,0,0-6.88,1.52,14.77,14.77,0,0,0-5,4.06,18.22,18.22,0,0,0-3,5.88,23.31,23.31,0,0,0-1,7,23.57,23.57,0,0,0,1,7,16.75,16.75,0,0,0,3,5.72,14.09,14.09,0,0,0,5,3.87,15.92,15.92,0,0,0,7,1.44,16.2,16.2,0,0,0,6.23-1.14,13.24,13.24,0,0,0,4.69-3.19,13.54,13.54,0,0,0,2.9-5,17.65,17.65,0,0,0,.81-6.48H78.63V20.64H94.94v19H92.88V31.37h-.11a11.82,11.82,0,0,1-2.11,3.82,12.92,12.92,0,0,1-3.33,2.87,16.78,16.78,0,0,1-4.28,1.82,18.58,18.58,0,0,1-4.91.65A18.21,18.21,0,0,1,70.37,39a16.77,16.77,0,0,1-5.72-4.28,18.38,18.38,0,0,1-3.52-6.37A25,25,0,0,1,59.94,20.48Z"/><path class="cls-1" d="M135.74.92h2.6l15.28,38.69h-2.55L146.2,27.2H127.67l-4.93,12.41h-2.55Zm9.7,24.22L137.15,3.25H137l-8.62,21.89Z"/><path class="cls-1" d="M179.14.92h16.15a20.82,20.82,0,0,1,4.77.52A11.09,11.09,0,0,1,204,3.12a7.89,7.89,0,0,1,2.62,3.06,10.35,10.35,0,0,1,.95,4.71,10,10,0,0,1-2.19,6.58,9.65,9.65,0,0,1-6.1,3.34v.1a9.28,9.28,0,0,1,4.2,1.41,6.87,6.87,0,0,1,2.3,2.66,10.74,10.74,0,0,1,1,3.47,34.4,34.4,0,0,1,.22,3.79v2.22a16.25,16.25,0,0,0,.11,2,9.14,9.14,0,0,0,.35,1.76,4,4,0,0,0,.67,1.36h-2.65a6.93,6.93,0,0,1-.84-3.17c-.05-1.21-.08-2.47-.08-3.77s-.06-2.59-.16-3.87a8.39,8.39,0,0,0-1-3.44,6.15,6.15,0,0,0-2.74-2.44,12.29,12.29,0,0,0-5.28-.92H181.52V39.61h-2.38Zm16.15,19a14.15,14.15,0,0,0,3.93-.52,8.33,8.33,0,0,0,3.11-1.59,7.71,7.71,0,0,0,2.06-2.77,9.6,9.6,0,0,0,.76-4,7.91,7.91,0,0,0-.81-3.71,7.28,7.28,0,0,0-2.17-2.52A8.91,8.91,0,0,0,199,3.41,15.83,15.83,0,0,0,195.29,3H181.52v17Z"/><path class="cls-1" d="M236,.92h12.68a20.09,20.09,0,0,1,8.64,1.63,14.52,14.52,0,0,1,5.5,4.33,16.45,16.45,0,0,1,2.9,6.18,30.22,30.22,0,0,1,.84,7.15,26.93,26.93,0,0,1-1,7.67A16.85,16.85,0,0,1,262.26,34a15.39,15.39,0,0,1-5.61,4.09,19.94,19.94,0,0,1-8,1.49H236Zm12.79,36.63a18.51,18.51,0,0,0,5.45-.84,13.21,13.21,0,0,0,5-2.82,14.33,14.33,0,0,0,3.61-5.31,22,22,0,0,0,1.38-8.37,25.17,25.17,0,0,0-.79-6.77,16.48,16.48,0,0,0-2.06-4.74,10.64,10.64,0,0,0-2.92-3A14,14,0,0,0,255,4a16.38,16.38,0,0,0-3.52-.79A28.91,28.91,0,0,0,248.33,3h-9.91V37.55Z"/><path class="cls-1" d="M305.12.92h2.6L323,39.61h-2.55L315.58,27.2H297l-4.93,12.41h-2.54Zm9.7,24.22L306.53,3.25h-.11L297.8,25.14Z"/><path class="cls-1" d="M37.2,98.84a25.07,25.07,0,0,1-1.26,8,19.21,19.21,0,0,1-3.64,6.52,16.93,16.93,0,0,1-5.84,4.36,18.5,18.5,0,0,1-7.83,1.59,18.71,18.71,0,0,1-7.86-1.59,16.86,16.86,0,0,1-5.87-4.36,19.21,19.21,0,0,1-3.64-6.52,26.19,26.19,0,0,1,0-16.05A19.21,19.21,0,0,1,4.9,84.3a16.86,16.86,0,0,1,5.87-4.36,18.71,18.71,0,0,1,7.86-1.59,18.5,18.5,0,0,1,7.83,1.59A16.93,16.93,0,0,1,32.3,84.3a19.21,19.21,0,0,1,3.64,6.52A25,25,0,0,1,37.2,98.84Zm-34.79,0A22.75,22.75,0,0,0,3.51,106a17.56,17.56,0,0,0,3.17,5.83,15.06,15.06,0,0,0,12,5.45,15.26,15.26,0,0,0,6.82-1.47,15.47,15.47,0,0,0,5.07-4A17.58,17.58,0,0,0,33.7,106a23.83,23.83,0,0,0,0-14.25,17.58,17.58,0,0,0-3.18-5.83,15.6,15.6,0,0,0-5.07-4,15.26,15.26,0,0,0-6.82-1.47,15.42,15.42,0,0,0-6.85,1.47,15.51,15.51,0,0,0-5.1,4,17.56,17.56,0,0,0-3.17,5.83A22.73,22.73,0,0,0,2.41,98.84Z"/><path class="cls-1" d="M65.31,79.28h2.41v37H89.91v2.08H65.31Z"/><path class="cls-1" d="M115.66,79.28h2.41v37h22.19v2.08h-24.6Z"/><path class="cls-1" d="M166,79.28h26.3v2.09H168.42V97h22.47v2.08H168.42v17.2h24.17v2.08H166Z"/><path class="cls-1" d="M219.65,79.28H236a21.13,21.13,0,0,1,4.82.53,11.36,11.36,0,0,1,3.95,1.69,8.15,8.15,0,0,1,2.65,3.1,10.61,10.61,0,0,1,1,4.77A10.13,10.13,0,0,1,246.14,96,9.69,9.69,0,0,1,240,99.39v.11a9.29,9.29,0,0,1,4.24,1.43,6.85,6.85,0,0,1,2.33,2.68,11,11,0,0,1,1,3.51,35.27,35.27,0,0,1,.22,3.83v2.25a16.48,16.48,0,0,0,.11,2,10.2,10.2,0,0,0,.35,1.78,4.09,4.09,0,0,0,.69,1.37h-2.69a7.05,7.05,0,0,1-.84-3.2q-.09-1.83-.09-3.81c0-1.31,0-2.62-.16-3.92a8.38,8.38,0,0,0-1-3.47,6.23,6.23,0,0,0-2.77-2.47,12.36,12.36,0,0,0-5.34-.93H222.06v17.8h-2.41ZM236,98.52a14.77,14.77,0,0,0,4-.52,8.56,8.56,0,0,0,3.15-1.62,7.63,7.63,0,0,0,2.08-2.79,9.87,9.87,0,0,0,.77-4.06,7.93,7.93,0,0,0-.82-3.75,7.33,7.33,0,0,0-2.19-2.55,9,9,0,0,0-3.18-1.42,15.65,15.65,0,0,0-3.78-.44H222.06V98.52Z"/><path class="cls-1" d="M312.57,98.84a25.07,25.07,0,0,1-1.26,8,19.21,19.21,0,0,1-3.64,6.52,16.9,16.9,0,0,1-5.83,4.36,20.17,20.17,0,0,1-15.7,0,16.73,16.73,0,0,1-5.86-4.36,19.23,19.23,0,0,1-3.65-6.52,26.19,26.19,0,0,1,0-16.05,19.23,19.23,0,0,1,3.65-6.52,16.73,16.73,0,0,1,5.86-4.36,20.17,20.17,0,0,1,15.7,0,16.9,16.9,0,0,1,5.83,4.36,19.21,19.21,0,0,1,3.64,6.52A25,25,0,0,1,312.57,98.84Zm-34.79,0a22.75,22.75,0,0,0,1.1,7.13,17.4,17.4,0,0,0,3.18,5.83,15.24,15.24,0,0,0,5.09,4,15.42,15.42,0,0,0,6.85,1.47,15.23,15.23,0,0,0,6.82-1.47,15.47,15.47,0,0,0,5.07-4,17.4,17.4,0,0,0,3.18-5.83,23.83,23.83,0,0,0,0-14.25,17.4,17.4,0,0,0-3.18-5.83,15.6,15.6,0,0,0-5.07-4A15.23,15.23,0,0,0,294,80.44a15,15,0,0,0-11.94,5.45,17.4,17.4,0,0,0-3.18,5.83A22.73,22.73,0,0,0,277.78,98.84Z"/><path class="cls-1" d="M366.21,90.46a10.4,10.4,0,0,0-1.07-4.38,9,9,0,0,0-2.6-3.12,11.26,11.26,0,0,0-3.92-1.89,18.43,18.43,0,0,0-4.95-.63,17.52,17.52,0,0,0-3.54.38,11.15,11.15,0,0,0-3.5,1.34A7.9,7.9,0,0,0,344,84.74a7.22,7.22,0,0,0-1,4,6.07,6.07,0,0,0,1.15,3.84,8.32,8.32,0,0,0,3,2.38,19.18,19.18,0,0,0,4.28,1.45c1.6.37,3.23.72,4.87,1s3.32.72,4.9,1.17a16.8,16.8,0,0,1,4.28,1.87,9.17,9.17,0,0,1,3,3.06,9,9,0,0,1,1.15,4.74,9.49,9.49,0,0,1-1.31,5.15,11.22,11.22,0,0,1-3.32,3.4,13.55,13.55,0,0,1-4.44,1.89,20.51,20.51,0,0,1-4.68.58,27.27,27.27,0,0,1-6.47-.74,14.68,14.68,0,0,1-5.26-2.41,11.65,11.65,0,0,1-3.53-4.31,13.93,13.93,0,0,1-1.23-6.41h2.41a11,11,0,0,0,.93,5.46,9.79,9.79,0,0,0,3,3.64,12.64,12.64,0,0,0,4.57,2.05,23.75,23.75,0,0,0,5.54.63,17.62,17.62,0,0,0,3.75-.43,11.84,11.84,0,0,0,3.67-1.48,9.14,9.14,0,0,0,2.8-2.74,7.67,7.67,0,0,0,1.12-4.28,6.58,6.58,0,0,0-1.15-4,8.49,8.49,0,0,0-3-2.52,19.91,19.91,0,0,0-4.28-1.54c-1.58-.38-3.22-.74-4.9-1.07S350.56,98.46,349,98a16.86,16.86,0,0,1-4.27-1.78,9.08,9.08,0,0,1-3-2.9,8.27,8.27,0,0,1-1.15-4.58A9.32,9.32,0,0,1,341.69,84a9.69,9.69,0,0,1,3.07-3.23A13.38,13.38,0,0,1,349,78.93a19.75,19.75,0,0,1,4.66-.58,22.7,22.7,0,0,1,5.72.69,13.66,13.66,0,0,1,4.66,2.14,10.53,10.53,0,0,1,3.2,3.75,13.17,13.17,0,0,1,1.37,5.53Z"/><rect class="cls-1" x="152.69" y="97.03" width="33.15" height="2.06"/></g></g></svg>